<svg xmlns="http://www.w3.org/2000/svg" xmlns:xlink="http://www.w3.org/1999/xlink" version="1.1" width="289pt" height="64pt" viewBox="0 0 289 64">
<defs>
<clipPath id="clip_0">
<path transform="matrix(1,0,0,-1,0,64)" d="M44.125 0H289V64H44.125Z"/>
</clipPath>
<clipPath id="clip_1">
<path transform="matrix(1,0,0,-1,0,64)" d="M0 64V42.096L35.863 6.232 54.034 24.404 14.438 64Z"/>
</clipPath>
</defs>
<g id="layer_1" data-name="">
<g clip-path="url(#clip_0)">
<text xml:space="preserve" transform="matrix(1 0 -0 1 0 64)" font-size="41" font-family="Montserrat" font-weight="bold"><tspan y="-21.3359" x="56.6196 85.6476 112.0926 140.2596 166.7046 194.4206 217.54459 243.04659 260.84059">Codonvert</tspan></text>
</g>
<g clip-path="url(#clip_1)">
<path transform="matrix(1,0,0,-1,5.3608,26.2272)" d="M0 0C3.075-3.076 7.939-3.91 12.866-2.408 11.361-7.332 12.19-12.19 15.289-15.289 18.39-18.39 23.251-19.219 28.18-17.708 26.669-22.636 27.501-27.501 30.602-30.602 33.709-33.709 38.582-34.532 43.519-33.011 42.007-37.957 42.854-42.854 45.938-45.938L48.26-43.616C47.666-43.022 47.194-42.34 46.839-41.592L58.344-30.086C59.093-30.441 59.775-30.913 60.369-31.507L62.694-29.181C59.61-26.097 54.714-25.256 49.767-26.769 51.29-21.832 50.466-16.953 47.359-13.846 44.257-10.744 39.389-9.916 34.46-11.427 35.972-6.498 35.147-1.634 32.045 1.468 28.946 4.567 24.088 5.396 19.165 3.89 20.666 8.818 19.832 13.681 16.757 16.756L14.431 14.431C14.977 13.885 15.42 13.25 15.762 12.547L4.206 .991C3.503 1.333 2.868 1.776 2.322 2.322ZM6.284 .312 16.444 10.472C16.932 7.925 16.402 4.879 14.822 1.945L14.811 1.942 14.808 1.931C11.875 .351 8.831-.175 6.284 .312M17.227-.474C20.164 1.111 23.198 1.657 25.747 1.17L15.583-8.994C15.096-6.445 15.642-3.411 17.227-.474M16.265-11.068 27.821 .488C28.527 .143 29.166-.304 29.72-.858 30.263-1.401 30.705-2.027 31.047-2.717L19.473-14.291C18.783-13.949 18.154-13.51 17.611-12.967 17.057-12.413 16.61-11.774 16.265-11.068M21.537-14.984 31.74-4.78C32.244-7.339 31.702-10.398 30.107-13.354 27.151-14.949 24.096-15.487 21.537-14.984M32.537-15.784C35.449-14.213 38.461-13.664 40.996-14.13L30.886-24.239C30.42-21.704 30.966-18.696 32.537-15.784M31.553-26.328 43.085-14.797C43.811-15.145 44.466-15.605 45.033-16.172 45.563-16.701 45.997-17.307 46.336-17.977L34.733-29.58C34.063-29.241 33.454-28.81 32.924-28.28 32.358-27.714 31.901-27.054 31.553-26.328M36.786-30.283 47.04-20.03C47.565-22.601 47.026-25.683 45.417-28.664 42.436-30.272 39.357-30.808 36.786-30.283M47.872-31.119C50.766-29.558 53.728-28.98 56.249-29.425L46.178-39.496C45.733-36.975 46.311-34.013 47.872-31.119"/>
</g>
</g>
</svg>
